<svg width="350" height="56" viewBox="0 0 350 56" fill="none" xmlns="http://www.w3.org/2000/svg">
<g filter="url(#filter0_ddii_2_353)">
<rect x="3" y="2" width="343" height="50" rx="25" fill="url(#paint0_linear_2_353)"/>
</g>
<path d="M136.603 22.576C136.523 22.712 136.439 22.812 136.351 22.876C136.263 22.94 136.151 22.972 136.015 22.972C135.871 22.972 135.707 22.908 135.523 22.78C135.339 22.644 135.107 22.496 134.827 22.336C134.555 22.168 134.227 22.02 133.843 21.892C133.459 21.756 132.999 21.688 132.463 21.688C131.959 21.688 131.515 21.756 131.131 21.892C130.755 22.02 130.439 22.2 130.183 22.432C129.927 22.656 129.731 22.924 129.595 23.236C129.467 23.54 129.403 23.872 129.403 24.232C129.403 24.696 129.519 25.08 129.751 25.384C129.991 25.688 130.303 25.948 130.687 26.164C131.071 26.38 131.507 26.568 131.995 26.728C132.483 26.888 132.983 27.056 133.495 27.232C134.007 27.4 134.507 27.596 134.995 27.82C135.483 28.044 135.919 28.328 136.303 28.672C136.687 29.008 136.995 29.424 137.227 29.92C137.467 30.408 137.587 31.008 137.587 31.72C137.587 32.48 137.455 33.192 137.191 33.856C136.935 34.52 136.559 35.1 136.063 35.596C135.567 36.092 134.955 36.484 134.227 36.772C133.507 37.052 132.687 37.192 131.767 37.192C131.215 37.192 130.679 37.136 130.159 37.024C129.639 36.92 129.147 36.772 128.683 36.58C128.219 36.38 127.783 36.144 127.375 35.872C126.975 35.592 126.615 35.28 126.295 34.936L127.027 33.712C127.099 33.616 127.183 33.536 127.279 33.472C127.383 33.408 127.499 33.376 127.627 33.376C127.795 33.376 127.987 33.464 128.203 33.64C128.427 33.816 128.699 34.012 129.019 34.228C129.347 34.436 129.735 34.628 130.183 34.804C130.639 34.98 131.191 35.068 131.839 35.068C132.367 35.068 132.839 35 133.255 34.864C133.671 34.72 134.019 34.52 134.299 34.264C134.587 34 134.807 33.684 134.959 33.316C135.111 32.948 135.187 32.54 135.187 32.092C135.187 31.588 135.071 31.176 134.839 30.856C134.607 30.536 134.299 30.268 133.915 30.052C133.531 29.836 133.095 29.652 132.607 29.5C132.119 29.348 131.619 29.192 131.107 29.032C130.595 28.864 130.095 28.672 129.607 28.456C129.119 28.24 128.683 27.96 128.299 27.616C127.915 27.264 127.607 26.828 127.375 26.308C127.143 25.78 127.027 25.132 127.027 24.364C127.027 23.748 127.147 23.152 127.387 22.576C127.627 22 127.975 21.492 128.431 21.052C128.895 20.604 129.463 20.248 130.135 19.984C130.807 19.712 131.575 19.576 132.439 19.576C133.407 19.576 134.295 19.732 135.103 20.044C135.919 20.348 136.627 20.788 137.227 21.364L136.603 22.576ZM142.615 24.808V37H140.275V24.808H142.615ZM143.059 21.04C143.059 21.256 143.015 21.464 142.927 21.664C142.839 21.856 142.719 22.028 142.567 22.18C142.423 22.324 142.251 22.44 142.051 22.528C141.851 22.608 141.643 22.648 141.427 22.648C141.211 22.648 141.007 22.608 140.815 22.528C140.623 22.44 140.451 22.324 140.299 22.18C140.155 22.028 140.039 21.856 139.951 21.664C139.871 21.464 139.831 21.256 139.831 21.04C139.831 20.816 139.871 20.608 139.951 20.416C140.039 20.216 140.155 20.044 140.299 19.9C140.451 19.748 140.623 19.632 140.815 19.552C141.007 19.464 141.211 19.42 141.427 19.42C141.643 19.42 141.851 19.464 142.051 19.552C142.251 19.632 142.423 19.748 142.567 19.9C142.719 20.044 142.839 20.216 142.927 20.416C143.015 20.608 143.059 20.816 143.059 21.04ZM150.287 30.916C150.703 30.916 151.067 30.86 151.379 30.748C151.699 30.636 151.963 30.48 152.171 30.28C152.387 30.072 152.547 29.824 152.651 29.536C152.763 29.248 152.819 28.932 152.819 28.588C152.819 27.884 152.603 27.324 152.171 26.908C151.747 26.484 151.119 26.272 150.287 26.272C149.463 26.272 148.835 26.484 148.403 26.908C147.979 27.324 147.767 27.884 147.767 28.588C147.767 28.932 147.819 29.248 147.923 29.536C148.035 29.816 148.195 30.06 148.403 30.268C148.619 30.468 148.883 30.628 149.195 30.748C149.515 30.86 149.879 30.916 150.287 30.916ZM154.019 37.636C154.019 37.348 153.939 37.12 153.779 36.952C153.619 36.776 153.399 36.64 153.119 36.544C152.847 36.44 152.527 36.368 152.159 36.328C151.791 36.28 151.403 36.244 150.995 36.22C150.595 36.196 150.183 36.176 149.759 36.16C149.335 36.136 148.927 36.096 148.535 36.04C148.119 36.248 147.775 36.5 147.503 36.796C147.239 37.092 147.107 37.44 147.107 37.84C147.107 38.096 147.171 38.336 147.299 38.56C147.435 38.784 147.639 38.976 147.911 39.136C148.191 39.304 148.539 39.432 148.955 39.52C149.379 39.616 149.883 39.664 150.467 39.664C151.043 39.664 151.551 39.612 151.991 39.508C152.431 39.412 152.799 39.272 153.095 39.088C153.399 38.912 153.627 38.7 153.779 38.452C153.939 38.204 154.019 37.932 154.019 37.636ZM156.395 25.264V26.14C156.395 26.428 156.215 26.608 155.855 26.68L154.547 26.872C154.659 27.12 154.747 27.384 154.811 27.664C154.875 27.936 154.907 28.224 154.907 28.528C154.907 29.128 154.791 29.672 154.559 30.16C154.327 30.64 154.007 31.052 153.599 31.396C153.191 31.74 152.703 32.004 152.135 32.188C151.575 32.372 150.959 32.464 150.287 32.464C149.735 32.464 149.219 32.404 148.739 32.284C148.499 32.428 148.315 32.588 148.187 32.764C148.067 32.932 148.007 33.1 148.007 33.268C148.007 33.548 148.123 33.756 148.355 33.892C148.595 34.028 148.903 34.128 149.279 34.192C149.663 34.248 150.099 34.284 150.587 34.3C151.083 34.316 151.583 34.344 152.087 34.384C152.599 34.416 153.099 34.48 153.587 34.576C154.083 34.664 154.519 34.812 154.895 35.02C155.279 35.22 155.587 35.5 155.819 35.86C156.059 36.212 156.179 36.672 156.179 37.24C156.179 37.768 156.047 38.28 155.783 38.776C155.527 39.272 155.151 39.712 154.655 40.096C154.159 40.48 153.555 40.788 152.843 41.02C152.131 41.252 151.323 41.368 150.419 41.368C149.515 41.368 148.727 41.28 148.055 41.104C147.391 40.928 146.835 40.692 146.387 40.396C145.947 40.1 145.615 39.756 145.391 39.364C145.175 38.972 145.067 38.564 145.067 38.14C145.067 37.548 145.251 37.048 145.619 36.64C145.987 36.224 146.495 35.9 147.143 35.668C146.791 35.508 146.511 35.292 146.303 35.02C146.095 34.74 145.991 34.372 145.991 33.916C145.991 33.74 146.023 33.56 146.087 33.376C146.151 33.184 146.247 32.996 146.375 32.812C146.511 32.62 146.675 32.44 146.867 32.272C147.067 32.104 147.295 31.952 147.551 31.816C146.951 31.48 146.479 31.036 146.135 30.484C145.791 29.924 145.619 29.272 145.619 28.528C145.619 27.928 145.735 27.388 145.967 26.908C146.199 26.428 146.519 26.016 146.927 25.672C147.343 25.328 147.835 25.064 148.403 24.88C148.979 24.696 149.607 24.604 150.287 24.604C151.343 24.604 152.251 24.824 153.011 25.264H156.395ZM168.682 24.808V37H167.278C166.958 37 166.75 36.844 166.654 36.532L166.486 35.308C166.222 35.588 165.946 35.844 165.658 36.076C165.37 36.308 165.062 36.508 164.734 36.676C164.406 36.836 164.058 36.96 163.69 37.048C163.322 37.144 162.926 37.192 162.502 37.192C161.83 37.192 161.238 37.08 160.726 36.856C160.222 36.632 159.798 36.32 159.454 35.92C159.11 35.512 158.85 35.024 158.674 34.456C158.498 33.888 158.41 33.26 158.41 32.572V24.808H160.762V32.572C160.762 33.444 160.962 34.124 161.362 34.612C161.762 35.092 162.374 35.332 163.198 35.332C163.798 35.332 164.358 35.192 164.878 34.912C165.398 34.624 165.886 34.232 166.342 33.736V24.808H168.682ZM174.397 24.808V37H172.057V24.808H174.397ZM174.841 21.04C174.841 21.256 174.797 21.464 174.709 21.664C174.621 21.856 174.501 22.028 174.349 22.18C174.205 22.324 174.033 22.44 173.833 22.528C173.633 22.608 173.425 22.648 173.209 22.648C172.993 22.648 172.789 22.608 172.597 22.528C172.405 22.44 172.233 22.324 172.081 22.18C171.937 22.028 171.821 21.856 171.733 21.664C171.653 21.464 171.613 21.256 171.613 21.04C171.613 20.816 171.653 20.608 171.733 20.416C171.821 20.216 171.937 20.044 172.081 19.9C172.233 19.748 172.405 19.632 172.597 19.552C172.789 19.464 172.993 19.42 173.209 19.42C173.425 19.42 173.633 19.464 173.833 19.552C174.033 19.632 174.205 19.748 174.349 19.9C174.501 20.044 174.621 20.216 174.709 20.416C174.797 20.608 174.841 20.816 174.841 21.04ZM185.861 29.548C185.861 29.084 185.793 28.656 185.657 28.264C185.529 27.872 185.337 27.532 185.081 27.244C184.825 26.956 184.513 26.732 184.145 26.572C183.777 26.412 183.353 26.332 182.873 26.332C181.889 26.332 181.113 26.616 180.545 27.184C179.985 27.752 179.629 28.54 179.477 29.548H185.861ZM187.793 35.26C187.505 35.596 187.173 35.888 186.797 36.136C186.421 36.376 186.021 36.572 185.597 36.724C185.173 36.876 184.733 36.988 184.277 37.06C183.829 37.132 183.385 37.168 182.945 37.168C182.105 37.168 181.325 37.028 180.605 36.748C179.893 36.46 179.273 36.044 178.745 35.5C178.225 34.948 177.817 34.268 177.521 33.46C177.233 32.644 177.089 31.708 177.089 30.652C177.089 29.804 177.221 29.016 177.485 28.288C177.749 27.552 178.125 26.912 178.613 26.368C179.109 25.824 179.713 25.396 180.425 25.084C181.137 24.772 181.937 24.616 182.825 24.616C183.569 24.616 184.253 24.74 184.877 24.988C185.509 25.228 186.053 25.58 186.509 26.044C186.965 26.508 187.321 27.08 187.577 27.76C187.841 28.44 187.973 29.216 187.973 30.088C187.973 30.448 187.933 30.692 187.853 30.82C187.773 30.94 187.625 31 187.409 31H179.417C179.441 31.728 179.545 32.364 179.729 32.908C179.913 33.444 180.165 33.892 180.485 34.252C180.813 34.612 181.201 34.88 181.649 35.056C182.097 35.232 182.597 35.32 183.149 35.32C183.669 35.32 184.117 35.26 184.493 35.14C184.877 35.02 185.205 34.892 185.477 34.756C185.757 34.612 185.989 34.48 186.173 34.36C186.365 34.24 186.533 34.18 186.677 34.18C186.869 34.18 187.017 34.252 187.121 34.396L187.793 35.26ZM192.684 26.5C192.948 26.22 193.224 25.964 193.512 25.732C193.8 25.5 194.104 25.304 194.424 25.144C194.752 24.976 195.1 24.848 195.468 24.76C195.844 24.664 196.244 24.616 196.668 24.616C197.34 24.616 197.928 24.728 198.432 24.952C198.944 25.176 199.372 25.492 199.716 25.9C200.06 26.3 200.32 26.784 200.496 27.352C200.672 27.92 200.76 28.548 200.76 29.236V37H198.408V29.236C198.408 28.364 198.208 27.688 197.808 27.208C197.408 26.72 196.796 26.476 195.972 26.476C195.372 26.476 194.808 26.62 194.28 26.908C193.76 27.188 193.276 27.572 192.828 28.06V37H190.488V24.808H191.892C192.22 24.808 192.424 24.964 192.504 25.276L192.684 26.5ZM207.569 37.192C206.585 37.192 205.825 36.916 205.289 36.364C204.761 35.812 204.497 35.024 204.497 34V26.704H203.081C202.945 26.704 202.829 26.664 202.733 26.584C202.645 26.496 202.601 26.368 202.601 26.2V25.252L204.581 24.976L205.109 21.34C205.141 21.204 205.201 21.1 205.289 21.028C205.385 20.948 205.505 20.908 205.649 20.908H206.837V25H210.293V26.704H206.837V33.844C206.837 34.324 206.953 34.684 207.185 34.924C207.425 35.156 207.729 35.272 208.097 35.272C208.313 35.272 208.497 35.244 208.649 35.188C208.809 35.132 208.945 35.072 209.057 35.008C209.169 34.936 209.265 34.872 209.345 34.816C209.425 34.76 209.497 34.732 209.561 34.732C209.641 34.732 209.701 34.752 209.741 34.792C209.789 34.824 209.837 34.88 209.885 34.96L210.581 36.088C210.197 36.44 209.741 36.712 209.213 36.904C208.685 37.096 208.137 37.192 207.569 37.192ZM220.454 29.548C220.454 29.084 220.386 28.656 220.25 28.264C220.122 27.872 219.93 27.532 219.674 27.244C219.418 26.956 219.106 26.732 218.738 26.572C218.37 26.412 217.946 26.332 217.466 26.332C216.482 26.332 215.706 26.616 215.138 27.184C214.578 27.752 214.222 28.54 214.07 29.548H220.454ZM222.386 35.26C222.098 35.596 221.766 35.888 221.39 36.136C221.014 36.376 220.614 36.572 220.19 36.724C219.766 36.876 219.326 36.988 218.87 37.06C218.422 37.132 217.978 37.168 217.538 37.168C216.698 37.168 215.918 37.028 215.198 36.748C214.486 36.46 213.866 36.044 213.338 35.5C212.818 34.948 212.41 34.268 212.114 33.46C211.826 32.644 211.682 31.708 211.682 30.652C211.682 29.804 211.814 29.016 212.078 28.288C212.342 27.552 212.718 26.912 213.206 26.368C213.702 25.824 214.306 25.396 215.018 25.084C215.73 24.772 216.53 24.616 217.418 24.616C218.162 24.616 218.846 24.74 219.47 24.988C220.102 25.228 220.646 25.58 221.102 26.044C221.558 26.508 221.914 27.08 222.17 27.76C222.434 28.44 222.566 29.216 222.566 30.088C222.566 30.448 222.526 30.692 222.446 30.82C222.366 30.94 222.218 31 222.002 31H214.01C214.034 31.728 214.138 32.364 214.322 32.908C214.506 33.444 214.758 33.892 215.078 34.252C215.406 34.612 215.794 34.88 216.242 35.056C216.69 35.232 217.19 35.32 217.742 35.32C218.262 35.32 218.71 35.26 219.086 35.14C219.47 35.02 219.798 34.892 220.07 34.756C220.35 34.612 220.582 34.48 220.766 34.36C220.958 34.24 221.126 34.18 221.27 34.18C221.462 34.18 221.61 34.252 221.714 34.396L222.386 35.26Z" fill="white"/>
<defs>
<filter id="filter0_ddii_2_353" x="0" y="0" width="350" height="56" filterUnits="userSpaceOnUse" color-interpolation-filters="sRGB">
<feFlood flood-opacity="0" result="BackgroundImageFix"/>
<feColorMatrix in="SourceAlpha" type="matrix" values="0 0 0 0 0 0 0 0 0 0 0 0 0 0 0 0 0 0 127 0" result="hardAlpha"/>
<feOffset dx="1" dy="1"/>
<feGaussianBlur stdDeviation="1.5"/>
<feColorMatrix type="matrix" values="0 0 0 0 0.184314 0 0 0 0 0.145098 0 0 0 0 0.384314 0 0 0 0.9 0"/>
<feBlend mode="normal" in2="BackgroundImageFix" result="effect1_dropShadow_2_353"/>
<feColorMatrix in="SourceAlpha" type="matrix" values="0 0 0 0 0 0 0 0 0 0 0 0 0 0 0 0 0 0 127 0" result="hardAlpha"/>
<feOffset dx="-1" dy="1"/>
<feGaussianBlur stdDeviation="1"/>
<feColorMatrix type="matrix" values="0 0 0 0 0.184314 0 0 0 0 0.145098 0 0 0 0 0.384314 0 0 0 0.2 0"/>
<feBlend mode="normal" in2="effect1_dropShadow_2_353" result="effect2_dropShadow_2_353"/>
<feBlend mode="normal" in="SourceGraphic" in2="effect2_dropShadow_2_353" result="shape"/>
<feColorMatrix in="SourceAlpha" type="matrix" values="0 0 0 0 0 0 0 0 0 0 0 0 0 0 0 0 0 0 127 0" result="hardAlpha"/>
<feOffset dx="-1" dy="-1"/>
<feGaussianBlur stdDeviation="1"/>
<feComposite in2="hardAlpha" operator="arithmetic" k2="-1" k3="1"/>
<feColorMatrix type="matrix" values="0 0 0 0 0.184314 0 0 0 0 0.145098 0 0 0 0 0.384314 0 0 0 0.5 0"/>
<feBlend mode="normal" in2="shape" result="effect3_innerShadow_2_353"/>
<feColorMatrix in="SourceAlpha" type="matrix" values="0 0 0 0 0 0 0 0 0 0 0 0 0 0 0 0 0 0 127 0" result="hardAlpha"/>
<feOffset dx="1" dy="1"/>
<feGaussianBlur stdDeviation="1"/>
<feComposite in2="hardAlpha" operator="arithmetic" k2="-1" k3="1"/>
<feColorMatrix type="matrix" values="0 0 0 0 0.741176 0 0 0 0 0.584314 0 0 0 0 1 0 0 0 0.3 0"/>
<feBlend mode="normal" in2="effect3_innerShadow_2_353" result="effect4_innerShadow_2_353"/>
</filter>
<linearGradient id="paint0_linear_2_353" x1="3" y1="2" x2="17.2739" y2="99.9193" gradientUnits="userSpaceOnUse">
<stop stop-color="#7058E8"/>
<stop offset="1" stop-color="#7C62FF"/>
</linearGradient>
</defs>
</svg>
